<svg version="1.1" id="Layer_1" xmlns="http://www.w3.org/2000/svg" x="0" y="0" viewBox="0 0 300 300" style="enable-background:new 0 0 300 300" xml:space="preserve">
  <style>
    .st0{fill:#fff;stroke:#000;stroke-miterlimit:10}
  </style>
  <path class="st0" d="M173 80.7c0 28-23 50.7-23 50.7s-23-22.7-23-50.7S150 30 150 30s23 22.7 23 50.7z"/>
  <path class="st0" d="M135.3 78.6c14 24.2 5.4 55.4 5.4 55.4s-31.3-8.1-45.3-32.4S90 46.2 90 46.2s31.3 8.2 45.3 32.4z"/>
  <path class="st0" d="M101.6 95.7c24.2 14 32.4 45.3 32.4 45.3s-31.1 8.6-55.4-5.4-32.4-45.3-32.4-45.3 31.2-8.6 55.4 5.4z"/>
  <path class="st0" d="M81 127.3c28 0 50.7 23 50.7 23s-22.7 23-50.7 23-50.7-23-50.7-23 22.7-23 50.7-23z"/>
  <path class="st0" d="M79 165c24.2-14 55.4-5.4 55.4-5.4s-8.1 31.3-32.4 45.3c-24.2 14-55.4 5.4-55.4 5.4S54.7 179 79 165z"/>
  <path class="st0" d="M96 198.7c14-24.2 45.3-32.4 45.3-32.4s8.6 31.1-5.4 55.4-45.3 32.4-45.3 32.4-8.6-31.2 5.4-55.4z"/>
  <path class="st0" d="M127.7 219.3c0-28 23-50.7 23-50.7s23 22.7 23 50.7-23 50.7-23 50.7-23-22.7-23-50.7z"/>
  <path class="st0" d="M165.4 221.4c-14-24.2-5.4-55.4-5.4-55.4s31.3 8.1 45.3 32.4 5.4 55.4 5.4 55.4-31.3-8.2-45.3-32.4z"/>
  <path class="st0" d="M199 204.3c-24.2-14-32.4-45.3-32.4-45.3s31.1-8.6 55.4 5.4 32.4 45.3 32.4 45.3-31.1 8.6-55.4-5.4z"/>
  <path class="st0" d="M219.7 172.7c-28 0-50.7-23-50.7-23s22.7-23 50.7-23 50.7 23 50.7 23-22.8 23-50.7 23z"/>
  <path class="st0" d="M221.7 135c-24.2 14-55.4 5.4-55.4 5.4s8.1-31.3 32.4-45.3 55.4-5.4 55.4-5.4-8.2 31.3-32.4 45.3z"/>
  <path class="st0" d="M204.6 101.3c-14 24.2-45.3 32.4-45.3 32.4s-8.6-31.1 5.4-55.4S210 45.9 210 45.9s8.6 31.2-5.4 55.4z"/>
  <ellipse cx="150" cy="150.3" rx="34" ry="35.4" style="fill:#f39800;stroke:#000;stroke-miterlimit:10"/>
</svg>